<?xml version="1.0" standalone="no"?>
<!DOCTYPE svg PUBLIC "-//W3C//DTD SVG 20010904//EN"
 "http://www.w3.org/TR/2001/REC-SVG-20010904/DTD/svg10.dtd">
<svg version="1.0" xmlns="http://www.w3.org/2000/svg"
 width="512.000000pt" height="512.000000pt" viewBox="0 0 512.000000 512.000000"
 preserveAspectRatio="xMidYMid meet">

<g transform="translate(0.000000,512.000000) scale(0.100000,-0.100000)"
fill="#000000" stroke="none">
<path d="M2052 4794 c-86 -44 -82 -178 6 -220 44 -21 93 -12 134 25 24 22 32
37 35 78 5 47 3 54 -28 87 -41 45 -96 56 -147 30z"/>
<path d="M3011 4654 c-85 -71 -38 -214 70 -214 76 0 129 49 129 120 0 101
-122 159 -199 94z"/>
<path d="M4349 4215 c-39 -21 -59 -59 -59 -111 0 -39 5 -51 34 -80 29 -29 41
-34 83 -34 55 0 86 17 108 60 56 109 -59 223 -166 165z"/>
<path d="M1462 4010 c-32 -20 -62 -71 -62 -106 0 -32 33 -85 63 -101 96 -49
202 27 183 131 -15 78 -115 119 -184 76z"/>
<path d="M2483 3905 c-169 -46 -291 -173 -329 -342 -21 -95 -14 -138 28 -159
28 -15 34 -15 64 -1 33 16 36 24 49 118 12 95 111 210 205 238 54 16 149 14
206 -6 67 -23 154 -110 177 -177 52 -154 -11 -311 -156 -388 l-42 -23 -898 -5
-899 -5 -19 -24 c-26 -32 -24 -67 6 -96 l24 -25 868 0 c947 0 940 0 1047 58
68 37 148 117 180 180 96 190 67 393 -78 538 -117 116 -278 160 -433 119z"/>
<path d="M3649 3766 c-39 -22 -59 -60 -59 -110 0 -55 34 -101 89 -117 74 -22
151 40 151 124 0 56 -50 108 -110 113 -28 3 -55 -1 -71 -10z"/>
<path d="M4375 3243 c-191 -21 -340 -141 -395 -320 -39 -126 -20 -203 50 -203
43 0 67 29 75 91 39 316 435 393 583 114 23 -43 27 -62 27 -135 0 -69 -4 -93
-23 -128 -35 -66 -88 -119 -150 -149 l-57 -28 -2153 -5 c-2117 -5 -2154 -5
-2168 -24 -20 -28 -17 -73 6 -96 20 -20 33 -20 2169 -20 2124 0 2150 0 2214
20 207 64 343 286 307 500 -25 149 -122 278 -254 341 -66 31 -165 49 -231 42z"/>
<path d="M3649 1936 c-39 -22 -59 -60 -59 -110 0 -55 34 -101 89 -117 74 -22
151 40 151 124 0 56 -50 108 -110 113 -28 3 -55 -1 -71 -10z"/>
<path d="M893 1800 c-47 -19 -56 -78 -18 -115 l24 -25 875 0 c852 0 877 -1
929 -20 75 -28 130 -79 168 -155 29 -60 31 -70 27 -148 -3 -67 -9 -93 -30
-128 -81 -137 -228 -194 -375 -145 -99 33 -187 140 -199 242 -11 98 -44 133
-106 112 -42 -15 -53 -56 -39 -139 40 -220 226 -378 446 -379 264 0 471 219
452 480 -13 186 -126 336 -302 402 l-60 23 -885 2 c-504 1 -894 -2 -907 -7z"/>
<path d="M4758 1714 c-36 -19 -58 -63 -58 -115 0 -33 6 -47 34 -75 30 -30 40
-34 86 -34 46 0 56 4 86 34 28 28 34 42 34 75 0 23 -7 55 -15 71 -28 55 -109
76 -167 44z"/>
<path d="M3773 1351 c-61 -38 -79 -109 -43 -169 78 -127 274 -27 217 111 -29
67 -114 96 -174 58z"/>
<path d="M4469 1025 c-36 -20 -63 -78 -55 -124 8 -55 63 -101 120 -101 65 0
126 58 126 120 0 36 -31 90 -61 105 -35 19 -96 19 -130 0z"/>
<path d="M1701 834 c-85 -71 -38 -214 70 -214 101 0 159 92 114 180 -32 62
-129 80 -184 34z"/>
<path d="M3653 546 c-87 -39 -85 -179 3 -221 46 -22 94 -13 137 25 29 25 32
34 32 84 0 49 -4 59 -31 87 -37 36 -93 46 -141 25z"/>
<path d="M2640 503 c-30 -11 -70 -57 -76 -89 -19 -104 87 -180 183 -131 30 16
63 69 63 101 0 80 -95 146 -170 119z"/>
</g>
</svg>
