<?xml version="1.0" standalone="no"?>
<!DOCTYPE svg PUBLIC "-//W3C//DTD SVG 20010904//EN"
 "http://www.w3.org/TR/2001/REC-SVG-20010904/DTD/svg10.dtd">
<svg version="1.0" xmlns="http://www.w3.org/2000/svg"
 width="512.000000pt" height="512.000000pt" viewBox="0 0 512.000000 512.000000"
 preserveAspectRatio="xMidYMid meet">

<g transform="translate(0.000000,512.000000) scale(0.100000,-0.100000)"
fill="#000000" stroke="none">
<path d="M2720 4638 c-61 -42 -254 -417 -302 -588 -44 -156 2 -312 124 -425
78 -73 147 -99 258 -99 111 0 180 26 258 99 89 82 142 200 142 315 0 99 -79
302 -209 535 -88 160 -115 185 -191 185 -32 0 -58 -7 -80 -22z m150 -273 c74
-137 145 -300 161 -371 24 -106 -24 -222 -115 -279 -42 -25 -59 -30 -116 -30
-88 0 -150 36 -197 114 -59 99 -55 169 21 348 48 112 165 333 176 333 4 0 35
-52 70 -115z"/>
<path d="M1599 4167 c-77 -52 -536 -822 -773 -1297 -260 -522 -358 -829 -343
-1075 20 -322 139 -583 371 -810 170 -166 335 -259 566 -316 80 -19 121 -23
260 -23 146 0 177 3 271 26 224 56 400 157 565 322 238 238 358 522 358 851 0
157 -16 241 -85 440 -136 397 -498 1083 -911 1730 -94 147 -126 175 -198 175
-32 0 -58 -7 -81 -23z m213 -349 c547 -877 882 -1585 905 -1919 10 -150 -27
-335 -97 -486 -135 -291 -381 -498 -689 -581 -84 -22 -116 -25 -251 -25 -136
0 -167 3 -254 26 -180 48 -336 138 -469 271 -171 170 -272 376 -308 625 -33
231 44 501 277 980 121 249 225 443 372 696 123 212 373 615 382 615 3 0 63
-91 132 -202z"/>
<path d="M1153 2464 c-134 -49 -230 -233 -264 -504 -40 -327 74 -621 279 -722
60 -30 75 -33 152 -33 72 1 93 5 136 27 97 50 167 159 201 309 27 118 24 378
-5 494 -47 190 -154 350 -273 410 -67 34 -163 42 -226 19z m153 -160 c73 -35
145 -147 184 -286 41 -143 36 -379 -10 -512 -46 -136 -132 -178 -247 -121 -83
42 -147 146 -179 289 -21 98 -14 269 15 391 51 210 130 290 237 239z"/>
<path d="M3682 3860 c-36 -22 -145 -183 -304 -449 -223 -373 -338 -651 -338
-813 1 -145 74 -325 180 -440 97 -106 229 -184 370 -219 71 -18 269 -18 339 0
215 55 384 188 477 376 116 235 94 414 -96 790 -151 299 -414 720 -472 755
-43 26 -113 26 -156 0z m169 -283 c200 -307 379 -642 435 -814 67 -203 19
-382 -141 -532 -215 -201 -555 -200 -771 2 -160 149 -206 328 -140 532 38 113
168 376 280 564 97 162 238 381 246 381 3 0 44 -60 91 -133z"/>
</g>
</svg>
